<svg xmlns:rdf="http://www.w3.org/1999/02/22-rdf-syntax-ns#" xmlns="http://www.w3.org/2000/svg" height="128" viewBox="0 0 128 128" width="128" version="1.1" xmlns:cc="http://creativecommons.org/ns#" xmlns:dc="http://purl.org/dc/elements/1.1/">
 <g transform="translate(.3074)">
  <rect height="128" width="128" y="0" x="0" fill=""/>
  <circle cy="35.87" cx="85.9" r="3.515" fill="#779b9b"/>
  <g fill-rule="evenodd" fill="#405982">
   <path d="m40.91 39.15-4.61 4.61c-5.98-7.61-22.26-6.88-22.45 6.02-0.1897 12.9 15.07 16.41 22.56 7.698l4.725 4.725c-11.54 12.17-33.3 5.69-33.3-12.1 0-17.78 23.62-23.28 33.07-10.95z"/>
   <path d="m82.62 49.53v34.46h1.959l4.588-7.915v-26.66z"/>
   <path d="m50.42 67.62v7.202c3.401 0 7.887 0.7629 7.887-3.411s-4.044-3.673-7.887-3.791zm-6.354-6.223v34.44h6.354v-14.8h0.8643l7.58 14.8h7.285l-8.47-15.39c7.98-1.08 11.02-18.88-3.92-19.06z"/>
  </g>
 </g>
 <g font-size="40px" font-family="&apos;Noto Sans Mono CJK JP&apos;" fill="#000000">
  <text style="word-spacing:0px;letter-spacing:0px" line-height="125%" y="40.057106" x="129.8692" xml:space="preserve"><tspan font-weight="500" font-size="8.75px" y="40.057106" x="129.8692" font-family="Ubuntu" fill="#000000"></tspan></text>
  <text style="word-spacing:0px;letter-spacing:0px" xml:space="preserve" transform="rotate(-90)" line-height="125%" y="136.24181" x="-95.882904"><tspan style="letter-spacing:0.7px" font-weight="500" font-size="8.75px" y="136.24181" x="-95.882904" font-family="Ubuntu" fill="#000000"></tspan></text>
  <text style="word-spacing:0px;letter-spacing:0px" transform="rotate(-60.77)" xml:space="preserve" line-height="125%" y="178.78215" x="-9.6709223"><tspan style="letter-spacing:.2px" font-weight="500" font-size="8.75px" y="178.78215" x="-9.6709223" font-family="Ubuntu" fill="#000000"></tspan></text>
 </g>
 <g fill="#779b9b">
  <g transform="translate(-179.7 12.3)">
   <path d="m217.4 35.38c1.64 0.03979 1.857 1.454 1.932 2.727 0 0-2.029-0.0065-3.009-0.0065-0.014 0.8677 0.7418 1.162 1.181 1.172 0.4393 0.01055 0.8074-0.06904 1.25-0.219l0.2256 0.7279s-0.3673 0.4252-1.652 0.4131c-1.285-0.01208-2.132-1.26-2.132-2.469s0.5653-2.385 2.205-2.345zm0.9006 1.941c0-0.5344-0.4819-1.003-0.9433-1.013-0.4815-0.0106-1.03 0.5119-1.03 1.013z"/>
   <path d="m200 35.38c1.64 0.03979 1.857 1.454 1.932 2.727 0 0-2.029-0.0065-3.009-0.0065-0.014 0.8677 0.7418 1.162 1.181 1.172 0.4393 0.01055 0.8074-0.06904 1.25-0.219l0.2256 0.7279s-0.3673 0.4252-1.652 0.4131c-1.285-0.01208-2.132-1.26-2.132-2.469s0.5653-2.385 2.205-2.345zm0.9006 1.941c0-0.5344-0.4819-1.003-0.9433-1.013-0.4815-0.0106-1.03 0.5119-1.03 1.013z"/>
   <path d="m203.1 35.63c0.9942-0.2192 2.133-0.4633 3.078 0.04252 0.8715 0.5739 0.736 1.705 0.7462 2.614v1.771h-1.059c-0.0213-1.009 0.0504-2.024-0.0525-3.028-0.0664-0.8351-1.046-0.8016-1.654-0.665v3.692h-1.059c0.00003-1.476-0.00007-2.952 0.00005-4.428z"/>
   <path d="m209.3 34.1v1.382h1.628v0.8838h-1.628c0.0263 0.8094-0.0631 1.63 0.0684 2.43 0.1669 0.9476 1.446 0.02657 1.613 0.5007 0.1014 0.381 0.257 0.8145-0.3517 0.7795-0.8154 0.2171-1.99 0.1024-2.264-0.8548-0.2211-0.9328-0.089-1.903-0.1252-2.853l-0.00007-2.093z"/>
   <path d="m214.5 36.43c-0.4325-0.07877-0.8984-0.2117-1.549 0.1148v3.508h-1.059v-4.358c0.8896-0.313 1.876-0.4344 2.791-0.1575-0.0613 0.2975-0.1225 0.595-0.1838 0.8925z"/>
  </g>
  <g transform="matrix(0 -1 1 0 -130.7 .09328)">
   <path d="m-95.46 201.6c-0.01306-0.6727 0.1968-1.376 0.6938-1.849 0.631-0.6226 1.669-0.7446 2.45-0.3458 0.5373 0.2782 0.848 0.8544 0.9344 1.436 0.06085 0.3515 0.0601 0.71 0.03462 1.065h-3.019c0.02026 0.4357 0.2623 0.887 0.6906 1.039 0.5948 0.1861 1.272 0.1583 1.922-0.015l0.1258 0.7787c-0.354 0.1605-0.7464 0.2116-1.129 0.2565-0.6713 0.0582-1.403-0.0321-1.939-0.4749-0.5609-0.4498-0.7693-1.197-0.7646-1.89zm1.081-0.4449c0.6182 0.003 1.372-0.0212 1.991-0.0192 0-0.4596-0.3068-1.053-0.9132-1.037-0.552 0.0164-0.9713 0.2894-1.077 1.056z"/>
   <path d="m-88.8 199.5c0.6341-0.4341 1.899-0.3667 2.409-0.1523l-0.1223 0.8834c-0.4652-0.1859-1.011-0.2692-1.486-0.0726-0.4482 0.196-0.6563 0.6852-0.6847 1.163-0.0284 0.4776 0.03108 1.053 0.4043 1.412 0.6854 0.4098 1.258 0.2348 1.915 0.0966l0.1488 0.875c-1.31 0.492-2.4 0.3472-3.192-0.7051-0.2705-0.4357-0.3683-0.958-0.3716-1.599-0.0033-0.6407 0.3123-1.464 0.9791-1.901z"/>
   <path d="m-84.68 203.8v-6.615c0.3529-0.0583 0.7058-0.1167 1.059-0.175v2.266c0.6549-0.2151 1.426-0.2253 2.031 0.1388 0.502 0.3062 0.6823 0.9164 0.7205 1.47 0.02739 0.7108 0.0075 1.423 0.01354 2.134v0.7802h-1.059c-0.0042-0.8886 0.0088-1.778-0.0074-2.666-0.02724-0.3642-0.08169-0.8161-0.4467-0.9989-0.398-0.1741-0.8496-0.0879-1.252 0.0247v3.64h-1.059z"/>
   <path d="m-78.45 199.7c0.631-0.6226 1.715-0.8237 2.45-0.3458 0.9716 0.6316 1.014 1.347 0.9691 2.501h-3.019c0.02025 0.4357 0.2623 0.887 0.6906 1.039 0.5948 0.1861 1.19 0.1312 1.922-0.0149l0.1258 0.7787c-0.354 0.1605-0.7464 0.2115-1.129 0.2565-0.6713 0.0582-1.403-0.0322-1.939-0.4749-0.5609-0.4498-0.7693-1.197-0.7735-1.88-0.0041-0.6832 0.2057-1.386 0.7027-1.859zm2.377 1.376c0-0.4734-0.3151-0.9375-0.9745-0.9639-0.6875-0.0275-0.9562 0.5627-0.9562 0.9639 0.6436 0.00003 1.287-0.00007 1.931 0.00005z"/>
   <path d="m-70.59 200.2c-0.4996-0.153-1.043-0.1967-1.549-0.0437v3.666h-1.059v-4.358c1.015-0.3481 1.85-0.3333 2.791-0.1575-0.06125 0.2974-0.1225 0.5952-0.1838 0.8924z"/>
   <path d="m-65.77 199.5-0.1971 0.7506c-1.268-0.3747-2.17 0.005-2.171 1.09-0.000724 1.548 0.7633 1.823 2.32 1.509l0.1488 0.875c-0.4845 0.201-1.023 0.2166-1.544 0.2166-1.602 0-1.993-1.438-2.019-2.52-0.02903-1.189 0.9326-2.122 1.967-2.294 0.6552-0.1092 1.228 0.1642 1.496 0.3735z"/>
   <path d="m-64.14 203.8v-6.615c0.3529-0.0583 0.7058-0.1167 1.059-0.175v2.266c0.6549-0.2151 1.426-0.2253 2.031 0.1388 0.502 0.3062 0.6823 0.9164 0.7205 1.47 0.02739 0.7108 0.0075 1.423 0.01353 2.134v0.7802h-1.059c-0.0042-0.8886 0.0088-1.778-0.0074-2.666-0.02724-0.3642-0.08169-0.8161-0.4467-0.9989-0.398-0.1741-0.8496-0.0879-1.252 0.0247v3.64h-1.059z"/>
   <path d="m-58.6 201.6c-0.01305-0.6727 0.1968-1.376 0.6938-1.849 0.631-0.6226 1.669-0.7446 2.45-0.3458 0.5373 0.2782 0.848 0.8544 0.9344 1.436 0.06086 0.3515 0.06009 0.71 0.03462 1.065h-3.019c0.02025 0.4357 0.2592 0.8963 0.6906 1.039 0.5918 0.1954 1.136 0.267 1.922-0.0149l0.1258 0.7787c-0.354 0.1605-0.7464 0.2115-1.129 0.2565-0.6713 0.0582-1.403-0.0322-1.939-0.4749-0.5609-0.4498-0.7693-1.197-0.7646-1.89zm3.071-0.4725c-0.01797-0.5545-0.4524-1.007-0.9202-1.018-0.4677-0.011-1.011 0.3454-1.011 1.018 0.6436 0.00003 1.287-0.00007 1.931 0.00005z"/>
   <path d="m-51.51 203.1c0.2418-0.0106 0.5277 0.005 0.714-0.1755 0.1744-0.205 0.08614-0.542-0.1452-0.6656-0.5234-0.3432-1.21-0.3962-1.656-0.865-0.3214-0.3165-0.3671-0.8141-0.2678-1.234 0.1368-0.5458 0.6848-0.8772 1.213-0.9531 0.5427-0.0913 1.476 0.0765 1.805 0.2448l-0.2107 0.7956c-0.3468-0.1677-0.7408-0.1716-1.116-0.2096-0.2375 0.01-0.5413 0.0553-0.658 0.2924-0.07965 0.2031 0.0022 0.4531 0.1987 0.5564 0.3599 0.2248 0.7879 0.3011 1.158 0.507 0.3827 0.1752 0.7466 0.4954 0.8037 0.9344 0.07915 0.4418-0.0076 0.9554-0.3775 1.248-0.472 0.3758-1.109 0.4117-1.688 0.3956-0.4353-0.005-0.8625-0.1096-1.269-0.2588l0.1838-0.8838c0.4174 0.1679 0.8602 0.2803 1.312 0.2712z"/>
  </g>
  <g transform="matrix(.4883 -.8727 .8727 .4883 -133.2 .3992)">
   <path d="m26.34 233.1c0.543 0.0623 1.076 0.3796 1.288 0.9 0.2722 0.6664 0.1839 1.396 0.1996 2.097v1.645h-1.059c-0.0042-0.8886 0.0088-1.778-0.0074-2.666-0.02759-0.365-0.08134-0.8226-0.4534-0.9989-0.3946-0.172-0.8353-0.0795-1.246-0.0277v3.692h-1.059l0.05485-4.415c0.3793-0.0983 1.499-0.3126 2.281-0.2279z"/>
   <path d="m30.34 231.8v1.382h1.628v0.8838h-1.628c0.0047 0.6966-0.0099 1.394 0.0084 2.09 0.01527 0.2967 0.1176 0.6625 0.441 0.7524 0.3949 0.1082 0.8131 0.011 1.187-0.1298l0.175 0.84c-0.6279 0.2606-1.354 0.3427-2.004 0.1138-0.4708-0.1667-0.7525-0.6407-0.8143-1.118-0.08518-0.5728-0.04086-1.154-0.05199-1.731l0.03941-2.932c0.1764-0.0291 0.6664-0.0939 1.019-0.1522z"/>
   <path d="m32.85 235.5c-0.01402-0.6903 0.2092-1.412 0.732-1.885 0.6579-0.6124 1.723-0.7097 2.495-0.2613 0.5498 0.3271 0.819 0.9631 0.8774 1.578 0.03464 0.2906 0.02816 0.584 0.0081 0.8753h-3.019c0.02025 0.4357 0.2623 0.887 0.6906 1.039 0.5203 0.1883 1.468 0.0974 1.904-0.1037l0.1445 0.8669c-0.3722 0.1662-0.7842 0.2206-1.187 0.2609-0.671 0.051-1.4-0.0569-1.923-0.5142-0.5324-0.455-0.7261-1.179-0.7231-1.855zm3.071-0.4725c0.01365-0.4347-0.2233-0.9143-0.6683-1.033-0.471-0.1382-1.021 0.1232-1.186 0.5921-0.02171 0.1348-0.1317 0.4208-0.1317 0.4208 0.6113 0.00003 1.375 0.0203 1.986 0.0204z"/>
   <path d="m40.9 234.1c-0.4997-0.1523-1.043-0.1975-1.549-0.0437v3.666h-1.059v-4.358c0.8224-0.2845 2.22-0.4182 2.712-0.0872 0 0-0.05345 0.5746-0.1045 0.8222z"/>
   <path d="m43.58 236.9c0.3969 0.1539 0.8403 0.1087 1.249 0.0284v-2.625c-0.4683-0.2949-1.162-0.4041-1.603-0.003-0.3049 0.314-0.3721 0.7812-0.3798 1.263-0.0077 0.4819 0.1928 1.11 0.7332 1.337zm2.308 0.7634c-0.7849 0.2115-1.62 0.3383-2.427 0.1888-0.6784-0.135-1.275-0.6186-1.515-1.272-0.2521-0.7001-0.2369-1.495 0.0093-2.194 0.2309-0.6651 0.8509-1.172 1.556-1.238 0.4513-0.0596 0.9169 0.0221 1.319 0.2367v-2.196c0.3529-0.0583 0.7058-0.1167 1.059-0.175v6.65z"/>
   <path d="m48.5 237.8h-1.059v-4.576h1.059v4.576zm0.1138-5.915c0.02794 0.3803-0.3455 0.6954-0.7141 0.6448-0.3431-0.0149-0.6294-0.3381-0.5889-0.6825-0.01109-0.3735 0.3608-0.6647 0.72-0.6158 0.3328 0.0212 0.6044 0.317 0.583 0.6535z"/>
   <path d="m51.94 236.8c0.1223-0.2248 0.0048-0.5119-0.2164-0.6238-0.5349-0.3338-1.235-0.393-1.667-0.8893-0.3026-0.3358-0.3291-0.8407-0.2085-1.257 0.1803-0.5569 0.7751-0.8554 1.326-0.9043 0.5572-0.0567 1.123 0.0304 1.654 0.2011l-0.1925 0.8575c-0.4494-0.178-0.9554-0.2725-1.433-0.1656-0.2337 0.0443-0.4282 0.2638-0.3607 0.509 0.05707 0.2788 0.3647 0.3817 0.595 0.4812 0.4804 0.1854 1.012 0.3454 1.359 0.7492 0.2732 0.3294 0.2949 0.8021 0.2032 1.203-0.1209 0.4911-0.6022 0.7872-1.072 0.8776-0.5351 0.1037-1.094 0.0987-1.628-0.007-0.186-0.075-0.5015-0.0782-0.6035-0.2219l0.1755-0.8439c0.4173 0.1668 0.8601 0.2817 1.216 0.2693 0.3556-0.0124 0.693 0.0124 0.8537-0.2346z"/>
   <path d="m55.01 233.4c0.6747-0.433 1.546-0.4148 2.286-0.1731 0.178 0.0117 0.199 0.1104 0.1347 0.249l-0.18 0.6853c-0.474-0.1886-1.035-0.2744-1.515-0.0592-0.4587 0.2192-0.6511 0.7534-0.6611 1.233-0.01946 0.484 0.06251 1.042 0.4575 1.368 0.4042 0.2925 0.943 0.2701 1.412 0.1878 0.1471 0.0115 0.3937-0.1733 0.464-0.0785l0.1398 0.8223c-0.5271 0.2157-1.116 0.2624-1.679 0.2029-0.6767-0.0655-1.331-0.4696-1.618-1.098-0.1912-0.3948-0.2636-0.8388-0.2674-1.453-0.0037-0.6141 0.33-1.459 1.026-1.887z"/>
   <path d="m59.64 237.8h-1.059v-4.576h1.059v4.576zm0.1138-5.915c0.02794 0.3803-0.3455 0.6954-0.7141 0.6448-0.3431-0.0149-0.6294-0.3381-0.5889-0.6825-0.01109-0.3735 0.3608-0.6647 0.72-0.6158 0.3328 0.0212 0.6044 0.317 0.583 0.6535z"/>
   <path d="m64.22 235.5c0.01017-0.5325-0.1668-1.165-0.7056-1.385-0.4033-0.1564-0.8564-0.1307-1.272-0.0411v2.616c0.4352 0.29 1.061 0.3808 1.511 0.0764 0.3716-0.2975 0.4652-0.8162 0.4661-1.266zm0.1491 2.064c-0.6315 0.399-1.473 0.386-2.127 0.0442v1.776h-1.059v-6.046c0.8073-0.1968 1.662-0.344 2.486-0.1665 1.194 0.5225 1.504 1.212 1.57 2.148 0.06576 0.9364-0.1826 1.806-0.8705 2.244z"/>
   <path d="m66.81 237.4c-0.2925-0.416-0.2158-0.9466-0.2279-1.427v-4.777c0.3529-0.0583 0.7058-0.1167 1.059-0.175 0.0011 1.778-0.0022 3.556 0.0016 5.334-0.01439 0.2571 0.1143 0.5461 0.3845 0.6095 0.17 0.0396 0.3875 0.018 0.2831 0.2408l-0.362 0.6871c-0.2441-0.006-0.8231-0.0688-1.138-0.4923z"/>
   <path d="m70.46 237.8h-1.059v-4.576h1.059v4.576zm0.1138-5.915c0.02794 0.3803-0.3455 0.6954-0.7141 0.6448-0.3431-0.0149-0.6294-0.3381-0.5889-0.6825-0.01108-0.3735 0.3608-0.6647 0.72-0.6158 0.3328 0.0212 0.6044 0.317 0.583 0.6535z"/>
   <path d="m74.34 233.1c0.543 0.0623 1.076 0.3796 1.288 0.9 0.2722 0.6664 0.1839 1.396 0.1996 2.097v1.645h-1.059c-0.0042-0.8886 0.0088-1.778-0.0074-2.666-0.02759-0.365-0.08134-0.8226-0.4534-0.9989-0.3946-0.172-0.8353-0.0795-1.246-0.0277v3.692h-1.059l-0.0082-4.297c0.3793-0.0983 1.562-0.4306 2.344-0.3459z"/>
   <path d="m78.94 237c0.2485-0.002 0.499-0.005 0.7438-0.0525v-1.172c-0.4243-0.1033-0.894-0.1274-1.304 0.0437-0.3462 0.1556-0.4021 0.6344-0.2033 0.9261 0.1767 0.2224 0.5007 0.2488 0.7633 0.2552zm1.466-3.323c0.3246 0.4761 0.3042 1.072 0.3013 1.625v2.337c-0.8134 0.1506-1.652 0.2775-2.477 0.1493-0.4741-0.068-0.9488-0.3416-1.124-0.8076-0.1416-0.422-0.1555-0.9212 0.06836-1.318 0.3009-0.4953 0.9042-0.6791 1.451-0.7166 0.354-0.0307 0.7117 0.006 1.057 0.0852 0.01057-0.3221-0.01312-0.6908-0.2911-0.9036-0.3456-0.2558-0.8027-0.1809-1.202-0.1468-0.2039 0.008-0.4628 0.1198-0.62 0.1125l-0.127-0.8296c0.4543-0.1417 0.9333-0.2107 1.455-0.2134 0.5217-0.003 1.163 0.1324 1.507 0.6268z"/>
   <path d="m83.26 237.8h-1.059v-4.576h1.059v4.576zm0.1138-5.915c0.02794 0.3803-0.3455 0.6954-0.7141 0.6448-0.3431-0.0149-0.6294-0.3381-0.5889-0.6825-0.01109-0.3735 0.3608-0.6647 0.72-0.6158 0.3328 0.0212 0.6044 0.317 0.583 0.6535z"/>
   <path d="m87.41 234.1c-0.4997-0.1523-1.043-0.1975-1.549-0.0437v3.666h-1.059v-4.358c0.7949-0.3336 1.91-0.3569 2.681-0.1106 0.06415 0.2246-0.02227 0.5979-0.07327 0.8455z"/>
   <path d="m88.27 235.5c-0.01402-0.6903 0.2092-1.412 0.732-1.885 0.6579-0.6124 1.723-0.7097 2.495-0.2613 0.5498 0.327 0.819 0.963 0.8774 1.578 0.03459 0.2906 0.02827 0.584 0.008 0.8753h-3.019c0.02026 0.4357 0.2623 0.887 0.6906 1.039 0.5203 0.1883 1.405 0.2376 1.868 0.0215 0.1293-0.0139 0.1799 0.7417 0.1799 0.7417-0.3722 0.1662-0.7842 0.2206-1.187 0.2609-0.671 0.051-1.4-0.0569-1.923-0.5142-0.5323-0.455-0.7262-1.179-0.723-1.855zm3.01-0.8838c-0.1069-0.4062-0.5162-0.6975-0.9353-0.6548-0.4337 0.0125-0.8098 0.3526-0.9082 0.769-0.06054 0.1626-0.1169 0.3567 0.1113 0.2989 0.6039 0.007 1.208 0.0136 1.812 0.0204-0.0098-0.1466-0.03861-0.2926-0.07942-0.4336z"/>
   <path d="m95.62 236.8c0.1223-0.2248 0.0048-0.5119-0.2164-0.6238-0.5349-0.3338-1.235-0.393-1.667-0.8893-0.3026-0.3358-0.3291-0.8407-0.2085-1.257 0.1803-0.5569 0.7751-0.8554 1.326-0.9043 0.5572-0.0567 1.123 0.0304 1.654 0.2011l-0.1925 0.8575c-0.4494-0.178-0.9554-0.2725-1.433-0.1656-0.2337 0.0443-0.4282 0.2638-0.3607 0.509 0.05707 0.2788 0.3647 0.3817 0.595 0.4812 0.4804 0.1854 1.012 0.3454 1.359 0.7492 0.2732 0.3294 0.2949 0.8021 0.2032 1.203-0.1209 0.4911-0.6022 0.7872-1.072 0.8776-0.5351 0.1037-1.094 0.0987-1.628-0.007-0.186-0.075-0.5015-0.0782-0.6035-0.2219l0.1755-0.8439c0.4173 0.1668 0.8601 0.2817 1.216 0.2693 0.3556-0.0124 0.693 0.0124 0.8537-0.2346z"/>
  </g>
 </g>
</svg>
